<?xml version="1.0" encoding="UTF-8"?>
<svg id="Camada_2" data-name="Camada 2" xmlns="http://www.w3.org/2000/svg" viewBox="0 0 245.33 245.33">
  <defs>
    <style>
      .cls-1 {
        fill: #f9f7f6;
      }

      .cls-2 {
        fill: #e73c18;
      }

      .cls-3 {
        fill: #1a1c1d;
      }
    </style>
  </defs>
  <g id="Camada_1-2" data-name="Camada 1">
    <g>
      <rect class="cls-3" width="245.33" height="245.33" rx="24.85" ry="24.85"/>
      <g>
        <path class="cls-1" d="M171.49,63.63h-34.17c.21,4.78,2.4,9.05,5.78,12h26.61v26.61c2.95,3.37,7.21,5.56,12,5.77v-34.16c0-5.64-4.59-10.22-10.22-10.22ZM63.63,73.85v34.16c4.79-.21,9.05-2.4,12-5.77v-26.61h26.61c3.38-2.95,5.57-7.22,5.78-12h-34.16c-5.64,0-10.23,4.58-10.23,10.22ZM169.71,143.09v26.61h-26.61c-3.38,2.95-5.57,7.22-5.78,12h34.17c5.63,0,10.22-4.58,10.22-10.22v-34.17c-4.79.21-9.05,2.4-12,5.78ZM102.24,169.7h-26.61v-26.61c-2.95-3.38-7.21-5.57-12-5.78v34.17c0,5.64,4.59,10.22,10.23,10.22h34.16c-.21-4.78-2.4-9.05-5.78-12Z"/>
        <path class="cls-1" d="M111.7,118.38l19.4-5.39c1.25-.35,2.36.87,1.89,2.08l-7.51,19.55c-.54,1.42-2.58,1.32-2.99-.14l-2.47-8.86c-.13-.46-.46-.84-.9-1.03l-7.62-3.25c-1.37-.58-1.24-2.57.2-2.97Z"/>
        <g>
          <polygon class="cls-2" points="121.4 180.58 115.24 156.55 121.33 145.98 127.29 156.54 121.4 180.58"/>
          <polygon class="cls-2" points="157.92 129.51 148.48 123.18 157.71 117.18 180.41 123.26 157.92 129.51"/>
          <polygon class="cls-2" points="121.27 97.84 115.59 88.09 121.34 64.75 127.24 88.11 121.27 97.84"/>
          <polygon class="cls-2" points="88.56 129.4 64.92 123.37 87.89 117.19 96.8 123.09 88.56 129.4"/>
        </g>
      </g>
    </g>
  </g>
</svg>