<?xml version="1.0" encoding="UTF-8"?>
<svg id="Camada_2" data-name="Camada 2" xmlns="http://www.w3.org/2000/svg" viewBox="0 0 118.08 118.07">
  <defs>
    <style>
      .cls-1 {
        fill: #f9f7f6;
      }

      .cls-2 {
        fill: #e73c18;
      }
    </style>
  </defs>
  <g id="Camada_1-2" data-name="Camada 1">
    <g>
      <path class="cls-1" d="M107.86,0h-34.17c.21,4.78,2.4,9.05,5.78,12h26.61v26.61c2.95,3.37,7.21,5.56,12,5.77V10.22c0-5.64-4.59-10.22-10.22-10.22ZM0,10.22v34.16c4.79-.21,9.05-2.4,12-5.77V12h26.61c3.38-2.95,5.57-7.22,5.78-12H10.23C4.59,0,0,4.58,0,10.22ZM106.08,79.46v26.61h-26.61c-3.38,2.95-5.57,7.22-5.78,12h34.17c5.63,0,10.22-4.58,10.22-10.22v-34.17c-4.79.21-9.05,2.4-12,5.78ZM38.61,106.07H12v-26.61c-2.95-3.38-7.21-5.57-12-5.78v34.17c0,5.64,4.59,10.22,10.23,10.22h34.16c-.21-4.78-2.4-9.05-5.78-12Z"/>
      <path class="cls-1" d="M48.08,54.75l19.4-5.39c1.25-.35,2.36.87,1.89,2.08l-7.51,19.55c-.54,1.42-2.58,1.32-2.99-.14l-2.47-8.86c-.13-.46-.46-.84-.9-1.03l-7.62-3.25c-1.37-.58-1.24-2.57.2-2.97Z"/>
      <g>
        <polygon class="cls-2" points="57.78 116.95 51.61 92.92 57.7 82.35 63.66 92.91 57.78 116.95"/>
        <polygon class="cls-2" points="94.29 65.87 84.86 59.55 94.08 53.55 116.79 59.63 94.29 65.87"/>
        <polygon class="cls-2" points="57.64 34.21 51.96 24.45 57.72 1.12 63.62 24.48 57.64 34.21"/>
        <polygon class="cls-2" points="24.93 65.77 1.29 59.74 24.26 53.55 33.17 59.46 24.93 65.77"/>
      </g>
    </g>
  </g>
</svg>