<?xml version="1.0" encoding="UTF-8"?>
<svg xmlns="http://www.w3.org/2000/svg" viewBox="0 0 42.67 42.67" fill="none">
  <path d="M21.33 42.67C9.57 42.67 0 33.1 0 21.33S9.57 0 21.33 0s21.33 9.57 21.33 21.33-9.57 21.33-21.33 21.33Zm0-31.86c-5.8 0-10.52 4.72-10.52 10.52s4.72 10.52 10.52 10.52 10.52-4.72 10.52-10.52S27.13 10.81 21.33 10.81Z" fill="currentColor"/>
  <rect x="30.35" y="28.67" width="11.29" height="11.63" rx="1.63" ry="1.63" fill="#fff"/>
  <path d="M40.72 40.51h-9.44c-.63 0-1.14-.51-1.14-1.14v-9.78c0-.63.51-1.14 1.14-1.14h9.44c.63 0 1.14.51 1.14 1.14v9.78c0 .63-.51 1.14-1.14 1.14Zm-9.44-11.63c-.39 0-.71.32-.71.71v9.78c0 .39.32.71.71.71h9.44c.39 0 .71-.32.71-.71v-9.78c0-.39-.32-.71-.71-.71h-9.44Z" fill="#F23C00"/>
</svg>
