<?xml version="1.0" encoding="UTF-8"?>
<svg id="Camada_1" xmlns="http://www.w3.org/2000/svg" version="1.1" viewBox="0 0 1254 1254">
  <!-- Generator: Adobe Illustrator 30.1.0, SVG Export Plug-In . SVG Version: 2.1.1 Build 136)  -->
  <defs>
    <style>
      .st0 {
        fill: #fbd9ce;
      }

      .st1 {
        fill: #232323;
      }

      .st2 {
        fill: #f23c00;
      }

      .st3 {
        fill: #f5f5f5;
      }
    </style>
  </defs>
  <polygon class="st3" points="966.4 504.2 966.4 444.8 283.7 444.8 283.7 504.2 236.1 504.2 236.1 1013.7 1017.9 1013.7 1017.9 504.2 966.4 504.2"/>
  <rect class="st2" x="337.2" y="391.4" width="579.6" height="53"/>
  <polygon class="st0" points="923.9 253.7 874.1 253.7 874.1 198.6 808.3 198.6 808.3 132.8 426.1 132.8 426.1 198.6 369.2 198.6 369.2 253.7 330.1 253.7 330.1 319.4 369.2 319.4 369.2 390.6 874.1 390.6 874.1 319.4 923.9 319.4 923.9 253.7"/>
  <rect class="st2" x="608.3" y="203.9" width="37.3" height="144"/>
  <rect class="st2" x="608.3" y="203.9" width="37.3" height="144" transform="translate(902.9 -351.1) rotate(90)"/>
  <g>
    <rect class="st1" x="398.5" y="609.2" width="58.4" height="133.7"/>
    <rect class="st1" x="797.1" y="609.2" width="58.4" height="133.7"/>
  </g>
  <g>
    <rect class="st3" x="105" y="710.6" width="132" height="133.7"/>
    <rect class="st3" x="1017" y="710.6" width="132" height="133.7"/>
  </g>
  <g>
    <rect class="st3" x="288.1" y="991.4" width="57.8" height="129.8"/>
    <rect class="st3" x="449.4" y="991.4" width="57.8" height="129.8"/>
    <rect class="st3" x="746.8" y="991.4" width="57.8" height="129.8"/>
    <rect class="st3" x="908.1" y="991.4" width="57.8" height="129.8"/>
  </g>
</svg>